<svg xmlns="http://www.w3.org/2000/svg" width="512" height="512" viewBox="0 0 512 512" role="img" aria-label="Guyandu ink window">
  <defs>
    <linearGradient id="paper" x1="0" y1="0" x2="0" y2="1">
      <stop offset="0" stop-color="#ebe4d4"/>
      <stop offset="1" stop-color="#d4c4a6"/>
    </linearGradient>
    <linearGradient id="mist" x1="0" y1="0" x2="1" y2="0">
      <stop offset="0" stop-color="#6a7370" stop-opacity=".55"/>
      <stop offset=".5" stop-color="#8a9088" stop-opacity=".32"/>
      <stop offset="1" stop-color="#55615c" stop-opacity=".52"/>
    </linearGradient>
    <clipPath id="window">
      <rect x="42" y="42" width="428" height="428" rx="22"/>
    </clipPath>
  </defs>
  <rect width="512" height="512" rx="30" fill="#1c2221"/>
  <rect x="18" y="18" width="476" height="476" rx="26" fill="#9a7548"/>
  <rect x="30" y="30" width="452" height="452" rx="24" fill="#24302d"/>
  <g clip-path="url(#window)">
    <rect x="42" y="42" width="428" height="428" fill="url(#paper)"/>
    <circle cx="118" cy="132" r="38" fill="#c9a06a" opacity=".55"/>
    <path d="M20 250C95 190 160 198 220 240c58 40 118 38 176-4 40-28 82-34 136-14v120H20z" fill="#66726c" opacity=".34"/>
    <path d="M-10 318c90-40 178-24 255 16 76 40 168 46 290-6v174H-10z" fill="url(#mist)"/>
    <path d="M48 358c78 14 142 12 205-6 74-20 138-16 226 10M40 396c84 10 154 8 218-8 68-18 136-14 232 10" fill="none" stroke="#e2d6be" stroke-width="7" stroke-linecap="round" opacity=".62"/>
    <g fill="#2c3533">
      <path d="M168 268h176v88H168z"/>
      <path d="m148 268 98-58 98 58z"/>
      <path d="M198 236h116v14H198z"/>
      <path d="M236 300h40v56h-40z" fill="#a88455"/>
      <path d="M248 210v58M264 210v58" stroke="#3f3128" stroke-width="6"/>
    </g>
    <path d="M74 43v427M438 43v427M42 91h428M42 421h428" stroke="#222c2a" stroke-width="12" opacity=".9"/>
  </g>
</svg>
